<?xml version="1.0" standalone="no"?>
<!DOCTYPE svg PUBLIC "-//W3C//DTD SVG 20010904//EN"
 "http://www.w3.org/TR/2001/REC-SVG-20010904/DTD/svg10.dtd">
<svg version="1.0" xmlns="http://www.w3.org/2000/svg"
 width="700.000000pt" height="700.000000pt" viewBox="0 0 700.000000 700.000000"
 preserveAspectRatio="xMidYMid meet">
<metadata>
Created by potrace 1.11, written by Peter Selinger 2001-2013
</metadata>
<g transform="translate(0.000000,700.000000) scale(0.100000,-0.100000)"
fill="#000000" stroke="none">
<path d="M1502 6235 c-219 -61 -377 -238 -417 -465 -9 -48 -9 -934 0 -989 10
-66 46 -166 78 -215 88 -137 232 -236 382 -261 270 -45 545 140 617 415 18 70
20 109 20 550 0 404 -2 485 -16 544 -43 183 -187 345 -361 407 -79 28 -229 35
-303 14z"/>
<path d="M5246 6234 c-88 -21 -174 -71 -247 -144 -73 -73 -111 -132 -147 -229
l-24 -66 -2 -495 c-3 -548 -1 -562 59 -687 58 -118 177 -231 293 -276 260
-102 558 13 685 264 63 124 66 157 65 678 -1 518 -3 544 -66 666 -119 228
-375 349 -616 289z"/>
<path d="M669 2596 c-89 -34 -158 -96 -200 -182 -32 -66 -33 -187 -2 -254 42
-94 288 -348 549 -570 195 -165 524 -376 774 -497 131 -63 317 -143 333 -143
7 0 17 -4 22 -9 11 -9 304 -104 375 -121 25 -6 52 -12 60 -15 43 -12 313 -64
360 -70 30 -3 66 -8 80 -11 166 -32 707 -37 900 -9 14 2 50 7 80 10 30 4 71 9
90 11 59 7 289 54 395 80 342 85 803 281 1085 462 99 64 195 127 200 132 3 3
41 32 85 64 269 200 621 547 680 671 58 123 26 278 -77 378 -87 85 -240 107
-354 53 -47 -23 -93 -63 -234 -206 -201 -204 -238 -237 -415 -369 -125 -94
-248 -175 -365 -240 -55 -31 -278 -141 -286 -141 -2 0 -23 -9 -47 -19 -168
-78 -492 -174 -693 -206 -16 -3 -38 -7 -49 -10 -11 -2 -49 -7 -85 -11 -36 -3
-68 -8 -71 -10 -9 -5 -286 -18 -384 -17 -89 0 -297 11 -338 18 -12 2 -44 6
-72 10 -339 40 -753 172 -1081 344 -329 173 -540 333 -849 646 -177 179 -206
204 -255 222 -65 24 -160 28 -211 9z"/>
</g>
</svg>
